Coordinates
version=1
nRows=14
nColumns=40
inDegrees=yes

Units are S.I. units (second, meters, Newtons, ...)
Angles are in degrees.

endheader
time	pelvis_tilt	pelvis_list	pelvis_rotation	pelvis_tx	pelvis_ty	pelvis_tz	hip_flexion_r	hip_adduction_r	hip_rotation_r	knee_angle_r	knee_angle_r_beta	ankle_angle_r	subtalar_angle_r	mtp_angle_r	hip_flexion_l	hip_adduction_l	hip_rotation_l	knee_angle_l	knee_angle_l_beta	ankle_angle_l	subtalar_angle_l	mtp_angle_l	lumbar_extension	lumbar_bending	lumbar_rotation	arm_flex_r	arm_add_r	arm_rot_r	elbow_flex_r	pro_sup_r	wrist_flex_r	wrist_dev_r	arm_flex_l	arm_add_l	arm_rot_l	elbow_flex_l	pro_sup_l	wrist_flex_l	wrist_dev_l
     49.27842857	     -4.26065280	     -6.26635193	     -3.93634832	      1.06391231	      0.90815516	      0.40699593	     26.71036146	     -4.16178075	      2.79501681	     61.68824814	     61.68824814	      6.86360078	    -12.69295151	     -1.20194067	     22.84799366	     -6.12857151	     -2.95216367	     37.68787665	     37.68787665	     21.00009279	    -18.04887088	      7.79770038	    -12.08344755	      9.00736026	      1.88093577	     -3.76155864	    -11.57369941	    -11.21501985	     21.43418057	     46.92806968	      0.00000000	      0.00000000	     30.10081972	    -19.07086870	      4.78246929	     53.45826428	     47.26662868	      0.00000000	      0.00000000
     49.29935714	     -4.30532319	     -6.34306355	     -4.78225693	      1.06229119	      0.90856562	      0.40731597	     27.90769401	     -3.89037094	      2.82802700	     60.50546276	     60.50546276	      7.08201093	    -13.63491225	     -1.56782267	     22.48214906	     -6.36972012	     -3.47425437	     37.61004791	     37.61004791	     21.54611163	    -18.16622575	      8.74011746	    -12.30415139	      9.16293732	      1.57036999	     -6.12646558	    -11.46513522	    -11.99946828	     22.53326324	     46.93105635	      0.00000000	      0.00000000	     30.74219209	    -19.46987267	      1.86019600	     56.33317042	     47.52061820	      0.00000000	      0.00000000
     49.32028571	     -4.46912289	     -6.42249310	     -5.68920469	      1.06048545	      0.90975047	      0.40822031	     28.92398931	     -3.52568173	      2.64695731	     58.41737519	     58.41737519	      7.38112868	    -14.32948933	     -1.91286967	     22.01490919	     -6.70485372	     -4.18970288	     37.08282618	     37.08282618	     21.61327230	    -18.21869568	      8.99794405	    -12.40226797	      9.27735048	      1.68349476	     -7.97304711	    -11.27809093	    -12.21313523	     22.27657966	     46.94379755	      0.00000000	      0.00000000	     31.98809230	    -19.86317744	      0.65058558	     58.08106290	     47.63786064	      0.00000000	      0.00000000
     49.34121429	     -4.74774678	     -6.46475414	     -6.62657569	      1.05865311	      0.91160615	      0.40955520	     29.64066319	     -3.19898322	      2.16660767	     55.31278080	     55.31278080	      7.25957392	    -14.60995072	     -3.71350211	     21.44791148	     -7.02982473	     -5.00993530	     36.14834691	     36.14834691	     21.44931891	    -18.25249253	      9.08575494	    -12.39050456	      9.38524648	      1.24475803	     -9.60655905	    -11.03240241	    -12.80703223	     23.39553333	     46.92622870	      0.00000000	      0.00000000	     32.36923288	    -20.44760364	     -2.03357275	     61.02603779	     47.84760835	      0.00000000	      0.00000000
     49.36214286	     -5.21296781	     -6.51129204	     -7.59289949	      1.05665888	      0.91393204	      0.41146198	     30.22953144	     -2.72292154	      1.57227598	     51.54024770	     51.54024770	      7.69105741	    -13.92883885	     -3.59729788	     20.90632116	     -7.40416706	     -5.85943528	     34.88462525	     34.88462525	     21.23068029	    -18.12405713	      9.37266648	    -12.12754774	      9.45867458	      1.36366725	    -10.76979657	    -10.81592958	    -12.83082560	     23.15069704	     46.92582640	      0.00000000	      0.00000000	     33.55845472	    -21.14902659	     -2.56161572	     61.99499707	     47.90483637	      0.00000000	      0.00000000
     49.38307143	     -5.46487909	     -6.47422430	     -8.57649334	      1.05489610	      0.91696922	      0.41375011	     30.14377426	     -2.34207238	      0.81397489	     47.00992670	     47.00992670	      7.81297696	    -12.36947360	     -4.24907686	     19.91198864	     -7.66732409	     -6.86733521	     33.25068720	     33.25068720	     20.73624181	    -18.05301096	      9.29268655	    -12.20146324	      9.34743984	      1.83511606	    -12.13121906	    -10.45637557	    -13.00091726	     23.86036826	     46.88788185	      0.00000000	      0.00000000	     34.48297540	    -21.30708459	     -3.99737016	     64.90800768	     48.04790563	      0.00000000	      0.00000000
     49.40400000	     -5.94458918	     -6.46215342	     -9.44912391	      1.05317143	      0.91974303	      0.41635538	     29.88712154	     -1.81870930	     -0.02910481	     41.91406651	     41.91406651	      7.37615734	    -10.50858324	     -5.40155355	     19.12765853	     -7.98762197	     -7.85799326	     31.49372023	     31.49372023	     19.80346023	    -17.91525987	      8.19787758	    -11.97253449	      9.37366319	      1.31931069	    -13.30926288	    -10.21400334	    -13.10464124	     26.31812403	     46.75358151	      0.00000000	      0.00000000	     34.24196203	    -22.09399255	     -6.64013546	     68.65602948	     48.25781548	      0.00000000	      0.00000000
     49.42492857	     -6.29050179	     -6.35156628	    -10.26165939	      1.05162747	      0.92255036	      0.41925018	     29.24946475	     -1.35726580	     -0.85765575	     36.70404635	     36.70404635	      7.22620616	     -7.72438494	     -4.86166065	     18.19009463	     -8.15258158	     -8.83371133	     29.74285579	     29.74285579	     19.34356548	    -17.60172671	      8.32950225	    -11.78725031	      9.24039249	      1.57679798	    -13.96023733	     -9.82954349	    -12.95130471	     26.71156903	     46.71112691	      0.00000000	      0.00000000	     35.41679307	    -22.59116376	     -7.21204599	     70.20066056	     48.32449336	      0.00000000	      0.00000000
     49.44585714	     -6.72653069	     -6.19901385	    -10.93270229	      1.05029283	      0.92480244	      0.42234814	     28.50887210	     -0.87332315	     -1.63637089	     31.51787749	     31.51787749	      6.72684586	     -4.90036052	     -3.84912262	     17.40127080	     -8.26044039	     -9.69560345	     28.04464097	     28.04464097	     18.90592787	    -17.19757904	      8.38411495	    -11.37293590	      9.11281011	      1.68564561	    -14.49956136	     -9.42712027	    -12.85699350	     27.32377347	     46.66602712	      0.00000000	      0.00000000	     36.36520360	    -23.01050963	     -7.71102131	     71.73237971	     48.38776971	      0.00000000	      0.00000000
     49.46678571	     -6.99975904	     -5.90309733	    -11.51246160	      1.04935080	      0.92654511	      0.42553529	     27.59617686	     -0.59778165	     -2.42188418	     26.76498460	     26.76498460	      6.14328851	     -1.71400086	     -2.55595434	     16.51824708	     -8.17837529	    -10.59817904	     26.48667904	     26.48667904	     18.52222850	    -16.73450325	      8.19529843	    -11.07034446	      8.82524050	      1.79062579	    -14.93604091	     -8.99000018	    -12.74845498	     28.30480820	     46.60436119	      0.00000000	      0.00000000	     37.35869968	    -23.43408584	     -8.29759131	     73.62833622	     48.46411428	      0.00000000	      0.00000000
     49.48771429	     -7.23542702	     -5.45749872	    -11.98174421	      1.04859536	      0.92755314	      0.42884933	     26.80511774	     -0.49231867	     -3.12449611	     22.73539203	     22.73539203	      5.44061178	      1.15952810	     -1.04248075	     15.77109881	     -7.93683675	    -11.44592083	     25.19092309	     25.19092309	     18.18709969	    -16.24649943	      7.85826843	    -10.72687428	      8.33049159	      1.81594084	    -15.23684194	     -8.55326741	    -12.62052165	     29.44655447	     46.53658696	      0.00000000	      0.00000000	     38.32170051	    -23.81033593	     -8.85471257	     75.54678077	     48.53937628	      0.00000000	      0.00000000
     49.50864286	     -7.24161669	     -5.06069993	    -12.43954399	      1.04841119	      0.92805871	      0.43212726	     26.26609999	     -0.59683517	     -4.28387164	     20.34690955	     20.34690955	      6.79108576	      5.04344272	      5.11911944	     14.66295106	     -7.68387922	    -12.43805684	     23.65692247	     23.65692247	     16.41350280	    -16.31081775	      3.61475070	    -10.82228864	      7.99785059	      1.19159850	    -17.07968334	     -9.19346192	     -8.92617123	     35.95865522	     45.97515306	      0.00000000	      0.00000000	     37.71122054	    -24.71636970	    -11.49897296	     80.60938213	     48.74224997	      0.00000000	      0.00000000
     49.52957143	     -7.32799130	     -4.59675863	    -12.77829156	      1.04844962	      0.92808679	      0.43563257	     25.61958287	     -0.60846573	     -4.83752124	     17.89452836	     17.89452836	      6.07210438	      6.91773366	      5.97893407	     13.95492129	     -7.37561343	    -13.10509121	     22.77926496	     22.77926496	     16.41860795	    -15.86075031	      3.48887641	    -10.51932065	      7.60631981	      1.35057855	    -17.05286948	     -9.02111604	     -8.60990724	     36.52053573	     45.93155101	      0.00000000	      0.00000000	     38.68552960	    -25.01444939	    -11.71046290	     81.95101730	     48.78129581	      0.00000000	      0.00000000
     49.55050000	     -7.39229974	     -4.07666043	    -13.04599829	      1.04886059	      0.92762728	      0.43914213	     25.22430937	     -0.77419270	     -5.37200839	     16.40315888	     16.40315888	      5.63249034	      8.42605240	      6.67061227	     13.27579298	     -6.99661931	    -13.73764114	     21.95026713	     21.95026713	     15.91601272	    -15.64712101	      1.90209814	    -10.22311474	      7.19731667	      0.97418782	    -17.23949776	     -9.43423495	     -6.44035949	     38.72132287	     45.71381264	      0.00000000	      0.00000000	     38.75923440	    -25.53847510	    -12.92158337	     84.59657866	     48.85400013	      0.00000000	      0.00000000
